# xmcd
#
# Track frame offsets:
#	150
#	20359
#	35631
#	53687
#	70843
#	89804
#	108657
#	127369
#	145421
#	162926
#	180002
#	193730
#	212546
#	229890
#	246351
#	262943
#	280415
#	300816
#
# Disc length: 4229 seconds
#
# Revision: 0
# Processed by: cddbd v1.5.2PL0 Copyright (c) Steve Scherf et al.
# Submitted via: EasyCDDAExtractor 11.0.0.1
#
DISCID=05108312
DTITLE=ΓΙΑΝΝΙΑΣ ΓΙΩΡΓΟΣ - ΔΕΚΑΟΧΤΩ ΒΗΜΑΤΑ
DYEAR=1999
DGENRE=ΛΑΪΚΑ
TTITLE0=Γιαννιάς Γιώργος_01 Δώσ' μου πίσω την καρδιά μου
TTITLE1=Γιαννιάς Γιώργος_02 Μέθυσα κι απόψε
TTITLE2=Γιαννιάς Γιώργος_03 Τί δεν έκανα για σένα
TTITLE3=Γιαννιάς Γιώργος_04 Φωτιά
TTITLE4=Γιαννιάς Γιώργος_05 Είναι πακέτο
TTITLE5=Γιαννιάς Γιώργος_06 Σ' αγαπώ
TTITLE6=Γιαννιάς Γιώργος_07 Τί θέλεις από μένα
TTITLE7=Γιαννιάς Γιώργος_08 Ζώ
TTITLE8=Γιαννιάς Γιώργος_09 Άντε γειά
TTITLE9=Γιαννιάς Γιώργος_10 Πές μου μονάχα ένα ψέμα
TTITLE10=Γιαννιάς Γιώργος_11 Καρδιά χωρίς αγάπη
TTITLE11=Γιαννιάς Γιώργος_12 Δεν είσαι εδώ
TTITLE12=Γιαννιάς Γιώργος_13 Σ' έχω και δεν σ' έχω
TTITLE13=Γιαννιάς Γιώργος_14 Έξω απο ένα μαγαζί
TTITLE14=Γιαννιάς Γιώργος_15 Μ' έχει στείλει
TTITLE15=Γιαννιάς Γιώργος_16 Δεν έχεις το δικαίωμα
TTITLE16=Γιαννιάς Γιώργος_17 Πάει πολύ
TTITLE17=Γιαννιάς Γιώργος_18 Απαραίτητη μου είσαι
EXTD=
EXTT0=
EXTT1=
EXTT2=
EXTT3=
EXTT4=
EXTT5=
EXTT6=
EXTT7=
EXTT8=
EXTT9=
EXTT10=
EXTT11=
EXTT12=
EXTT13=
EXTT14=
EXTT15=
EXTT16=
EXTT17=
PLAYORDER=
